# xmcd
#
# Track frame offsets:
#	150
#	21925
#	40487
#	56162
#	72262
#	88987
#	107437
#	125825
#	140075
#	156275
#
# Disc length: 2341 seconds
#
# Revision: 1
# Processed by: cddbd v1.5.1PL0 Copyright (c) Steve Scherf et al.
# Submitted via: dBpowerAMP V4.0
#
DISCID=9709230a
DTITLE=蘇永康 - 獨立宣言
DYEAR=1997
DGENRE=Pop
TTITLE0=信不信由你
TTITLE1=獨立宣言
TTITLE2=請將音量收細
TTITLE3=午睡
TTITLE4=好來好去
TTITLE5=善忘
TTITLE6=找一個新對像
TTITLE7=愛極甜
TTITLE8=多給妳一點
TTITLE9=海角天涯
EXTD=
EXTT0=
EXTT1=
EXTT2=
EXTT3=
EXTT4=
EXTT5=
EXTT6=
EXTT7=
EXTT8=
EXTT9=
PLAYORDER=
